HIERARCHY
ROOT Hips
{
  OFFSET -331.093 83.8371 -317.828
  CHANNELS 6 Xposition Yposition Zposition Zrotation Xrotation Yrotation
  JOINT LeftUpLeg
  {
    OFFSET 8.64259 1.95398 -2.38835
    CHANNELS 3 Zrotation Xrotation Yrotation
    JOINT LeftLeg
    {
      OFFSET 43.7702 0 0
      CHANNELS 3 Zrotation Xrotation Yrotation
      JOINT LeftFoot
      {
        OFFSET 40.6238 0 0
        CHANNELS 3 Zrotation Xrotation Yrotation
        JOINT LeftToeBase
        {
          OFFSET 12.7242 0 0
          CHANNELS 3 Zrotation Xrotation Yrotation
          End Site
          {
            OFFSET 0 0 0
          }
        }
      }
    }
  }
  JOINT RightUpLeg
  {
    OFFSET -8.2249 1.95398 -2.59336
    CHANNELS 3 Zrotation Xrotation Yrotation
    JOINT RightLeg
    {
      OFFSET 43.5653 0 0
      CHANNELS 3 Zrotation Xrotation Yrotation
      JOINT RightFoot
      {
        OFFSET 40.6238 0 0
        CHANNELS 3 Zrotation Xrotation Yrotation
        JOINT RightToeBase
        {
          OFFSET 12.7242 0 0
          CHANNELS 3 Zrotation Xrotation Yrotation
          End Site
          {
            OFFSET 0 0 0
          }
        }
      }
    }
  }
  JOINT Spine
  {
    OFFSET 0.165834 0.87714 6.61349
    CHANNELS 3 Zrotation Xrotation Yrotation
    JOINT Spine1
    {
      OFFSET 7.38963 1.71661e-005 0
      CHANNELS 3 Zrotation Xrotation Yrotation
      JOINT Spine2
      {
        OFFSET 11.9445 1.14441e-005 0
        CHANNELS 3 Zrotation Xrotation Yrotation
        JOINT Spine3
        {
          OFFSET 14.7254 4.19617e-005 0
          CHANNELS 3 Zrotation Xrotation Yrotation
          JOINT Spine4
          {
            OFFSET 10.9679 0 0
            CHANNELS 3 Zrotation Xrotation Yrotation
            JOINT RightShoulder
            {
              OFFSET 2.46616 -1.6653 3.69651
              CHANNELS 3 Zrotation Xrotation Yrotation
              JOINT RightArm
              {
                OFFSET 13.0012 0 0
                CHANNELS 3 Zrotation Xrotation Yrotation
                JOINT RightForeArm
                {
                  OFFSET 28.7848 1.62311e-005 0
                  CHANNELS 3 Zrotation Xrotation Yrotation
                  JOINT RightHand
                  {
                    OFFSET 26.5688 1.62095e-005 0
                    CHANNELS 3 Zrotation Xrotation Yrotation
                    End Site
                    {
                      OFFSET 0 0 0
                    }
                  }
                }
              }
            }
            JOINT LeftShoulder
            {
              OFFSET 2.38034 -1.29275 -3.7523
              CHANNELS 3 Zrotation Xrotation Yrotation
              JOINT LeftArm
              {
                OFFSET 16.3182 6.07031e-005 0
                CHANNELS 3 Zrotation Xrotation Yrotation
                JOINT LeftForeArm
                {
                  OFFSET 27.0901 0 0
                  CHANNELS 3 Zrotation Xrotation Yrotation
                  JOINT LeftHand
                  {
                    OFFSET 24.5451 1.51738e-005 0
                    CHANNELS 3 Zrotation Xrotation Yrotation
                    End Site
                    {
                      OFFSET 0 0 0
                    }
                  }
                }
              }
            }
            JOINT Neck
            {
              OFFSET 5.0226 -0.0266342 0
              CHANNELS 3 Zrotation Xrotation Yrotation
              JOINT Head
              {
                OFFSET 6.69364 2.86102e-005 0
                CHANNELS 3 Zrotation Xrotation Yrotation
                End Site
                {
                  OFFSET 0 0 0
                }
              }
            }
          }
        }
      }
    }
  }
}
MOTION
Frames:	12
Frame Time:	0.0416667
-322.045 81.0769 -340.576 -75.9229 -13.9375 -98.1709 -175.935 24.1959 113.072 23.1736 67.3152 -65.3946 10.3326 -45.0844 11.7386 -171.87 24.0458 -69.8984 143.168 55.4699 75.1996 -61.2245 -22.3502 7.7055 99.3339 -21.8348 -7.39671 -26.1005 39.3903 -84.6213 2.03513 6.42546 -90.1892 14.0477 3.94079 -0.915288 2.38226 3.89666 -1.08809 -20.2009 4.03339 0.313342 -0.188294 4.03337 0.31334 114.277 -29.0307 -57.1108 45.8032 11.0171 32.3261 -22.3445 -0.0647448 -79.0768 -28.5107 2.13089 -14.307 -99.8253 -2.85593 32.1051 -55.1737 24.0106 -31.254 165.519 21.9048 -179.977 21.1542 4.32998 13.1156 35.5437 -7.41937 64.1266 -48.8237 -11.7452 -61.4861 
-318.925 84.446 -337.342 -80.6227 -1.92454 -99.141 171.055 16.2137 94.3287 -54.1064 40.3297 13.0728 29.3368 -24.8864 -7.53022 165.307 31.1569 -61.0873 156.427 49.3321 72.348 -51.9134 -19.9367 5.89533 90.1706 -16.8046 -6.97661 9.04711 -2.4058 -19.6309 -1.67485 7.4377 -90.9276 11.964 -3.7652 -1.41448 0.298966 -3.82387 -1.2472 -22.2703 -3.16578 -2.48128 -2.25767 -3.16579 -2.4813 103.394 -20.7497 -79.0009 54.6175 -6.68788 30.812 -14.5898 0.514051 -82.4088 -24.8245 -1.07038 -0.349436 -117.349 -45.9749 38.9065 -13.7324 24.257 -9.40599 97.5469 7.69939 -83.0429 -28.4388 18.2531 -68.9164 46.0669 13.2482 43.5307 -33.793 0.166447 -45.9299 
-314.275 89.1209 -332.139 -82.839 16.8226 -94.6716 173.438 9.60516 92.6546 -48.7956 26.9067 8.69269 41.9268 -14.5287 -11.2184 136.032 40.9395 -43.2248 167.78 40.1855 79.9227 -33.5393 -19.5336 2.93431 77.3609 -9.41891 -5.37618 1.47061 1.31607 -12.9152 -2.13317 8.02272 -90.4651 10.8243 -4.46198 -0.508087 -0.839171 -4.48001 -0.310835 -23.4269 -4.10281 -1.8277 -3.41425 -4.10281 -1.8277 97.6576 -24.3104 -91.9838 55.9323 -14.0195 32.4528 -14.3971 1.21012 -82.284 -24.117 -0.664336 -2.03688 -102.432 -44.9984 58.9563 -16.7288 2.15039 7.70031 12.1984 -12.2773 -101.326 17.9775 -3.08407 -7.9784 33.4622 4.84596 21.6955 -20.0181 -0.0849217 -29.2445 
-307.682 91.7764 -325.028 -82.8419 38.5584 -92.702 -179.831 9.61115 89.6826 -46.9273 22.6002 3.81975 57.385 -5.33041 -2.27081 71.648 35.7101 0.656884 179.304 34.8748 85.4655 -29.7333 -21.1327 -1.99288 77.0785 -10.5272 -4.54345 -17.6628 1.19662 -1.0774 -0.368803 7.75754 -89.9971 11.3644 -0.732872 0.0722629 -0.306694 -0.728966 0.104438 -22.8414 -0.720741 -0.151328 -2.82876 -0.720734 -0.151328 95.2155 -30.8335 -95.8266 51.0379 -15.284 35.06 -12.2376 2.5627 -85.196 -24.3004 -0.597843 -2.37303 -96.1716 -43.8931 68.0703 -22.6458 6.97853 15.2109 10.9463 -9.98398 -109.152 29.2695 2.39657 4.80756 12.7206 0.401161 13.4277 -2.44023 -2.85473 -15.7394 
-298.853 91.8707 -315.862 -85.5771 44.8812 -90.8278 -178.646 14.1556 86.9639 -49.6781 16.1183 2.5527 68.4063 5.33829 5.00587 44.6396 18.3838 12.9442 -177.716 29.5432 87.2859 -43.8558 -10.6911 -4.56282 81.9244 -12.9608 -4.72925 -11.7917 -0.407321 4.61768 0.15792 7.65514 -89.7819 11.5628 0.416272 0.391619 -0.108173 0.433111 0.372911 -22.6431 0.279335 0.498618 -2.63049 0.279316 0.498617 93.494 -37.9159 -97.4434 41.2017 -18.366 29.0508 -10.5772 2.65579 -86.3661 -24.1016 -0.813615 -1.29803 -94.3512 -44.9343 71.2436 -27.3992 12.5301 20.4594 14.0159 -11.5594 -103.374 27.6285 2.08895 3.75088 2.87266 1.4312 5.63464 5.03937 0.186772 -4.75055 
-289.96 90.924 -306.889 -87.509 46.3145 -89.6352 -177.252 23.5517 86.32 -54.1705 14.1316 1.04336 65.5781 5.78698 6.80113 47.878 19.4947 9.19228 -179.718 26.6862 89.3466 -62.8415 5.73123 -5.36873 71.1812 -5.22388 -3.04122 37.1142 -2.17304 -13.1876 0.285676 7.6377 -89.6227 11.5956 0.745106 0.676033 -0.0753455 0.774137 0.642577 -22.6098 0.507482 0.86871 -2.59716 0.50749 0.868702 90.7251 -42.6997 -101.054 31.3296 -18.518 17.8227 -7.91869 2.71202 -87.8834 -23.953 -0.991395 -0.375389 -92.5343 -45.2536 74.1591 -32.9886 15.4939 23.5623 14.8382 -4.1629 -93.6627 28.4698 2.60475 5.46588 6.13132 2.50275 1.45807 -1.19219 2.15462 -3.01377 
-281.783 89.1965 -299.003 -91.0851 48.9398 -87.5069 -174.955 29.4408 86.3711 -56.4089 12.5417 -0.379062 67.6897 7.96974 8.24329 43.9922 13.4979 4.2168 177.991 15.8977 88.0912 -70.2124 6.54066 -5.77482 65.4873 -2.85465 -2.03939 42.6964 -3.39195 -12.7825 0.868282 7.89107 -89.5318 11.0865 1.94557 0.741867 -0.583221 1.97633 0.655489 -23.1253 1.63266 1.29238 -3.11261 1.63266 1.29238 90.7039 -41.2238 -101.487 27.8632 -19.9299 5.53482 -18.2118 4.60854 -90.1448 -31.277 -1.44546 -0.0420626 -92.8592 -45.1641 73.6291 -37.4859 17.1376 27.0198 9.66089 -5.66509 -75.475 35.4179 3.08496 4.78831 8.14237 0.837741 0.264546 -3.29956 0.787735 -2.53603 
-274.242 90.5988 -291.572 -92.0242 49.5044 -87.2603 -176.225 31.5803 86.5439 -47.6541 10.9204 -0.598583 64.4495 4.78173 6.00984 34.5611 5.47909 3.78149 172.931 1.35315 83.5138 -60.5855 0.296477 -6.22111 63.0716 -1.09317 -1.03864 44.0226 -4.01759 -14.5502 1.329 7.80491 -89.7132 11.2641 2.7786 0.296622 -0.403825 2.78894 0.173944 -22.96 2.56088 1.11852 -2.94738 2.56088 1.11852 93.1043 -34.1157 -99.0817 31.1382 -20.6337 -0.623283 -15.7676 8.11068 -100.398 -28.9164 -0.986805 -1.40432 -94.129 -48.0534 72.5251 -41.624 17.1089 38.3747 6.51571 -5.54261 -78.9089 36.2157 4.13001 7.65451 7.52749 -0.694324 5.05509 -4.40656 -1.57741 -6.3403 
-264.52 94.4452 -283.049 -90.2587 50.1612 -88.3657 -178.955 26.7068 90.1002 -19.0137 12.5664 -0.274571 49.653 -6.18514 -1.84229 21.2269 -4.71506 6.68499 172.024 -6.10059 85.1093 -47.2338 -8.33193 -7.44233 59.1578 1.63502 0.751635 42.5491 -3.30209 -12.5503 1.83094 7.73298 -89.7937 11.4126 3.73948 0.0332599 -0.252945 3.73731 -0.131594 -22.8283 3.55634 1.15702 -2.81567 3.55636 1.15703 93.1084 -32.8597 -99.4158 29.6659 -19.8728 -1.85854 -18.5168 10.0501 -109.266 -28.0394 -1.04536 -0.857303 -90.7357 -44.9342 76.8832 -48.6817 16.4918 44.6318 6.11239 -7.50591 -83.4957 38.8309 3.97234 6.41028 5.40255 -2.73639 5.33521 -3.20041 -3.61683 -5.92254 
-253.781 97.3855 -273.748 -83.533 49.1954 -92.3076 -179.419 29.4626 93.762 -6.7026 19.3234 -1.18553 45.9903 -10.6465 -7.76511 28.0497 3.20511 16.147 176.221 -4.31882 90.7908 -39.469 -16.4513 -7.48454 50.923 5.40234 3.98551 42.312 -2.62284 -9.88049 1.69847 7.3158 -89.9619 12.2515 3.39369 -0.306092 0.584871 3.37692 -0.455333 -21.9847 3.32861 0.729161 -1.97206 3.32861 0.729161 93.3687 -32.4765 -99.0193 29.4533 -24.7972 0.166733 -18.1326 11.9113 -110.683 -28.343 -0.901111 -1.53394 -88.131 -42.856 80.5439 -52.2867 11.9012 46.6391 6.8083 -8.29447 -88.0075 39.6217 3.8624 5.9017 2.89353 -2.93397 6.91538 -1.28809 -4.06691 -7.53354 
-243.243 98.2293 -264.611 -83.1058 46.8658 -94.8861 -178.837 29.5512 91.5056 -19.4017 17.2684 -0.790287 52.0748 -5.48445 -2.22496 33.662 10.7256 21.1287 177.271 -0.0893712 90.0146 -40.6909 -17.5943 -7.25328 52.2693 5.0377 3.57445 35.0704 -1.52063 -7.91513 1.27211 7.5026 -89.7979 11.8703 2.62483 0.123792 0.20204 2.62771 0.00805942 -22.3525 2.46619 0.907421 -2.33987 2.46617 0.907405 93.0705 -33.5744 -99.2939 31.8682 -26.1981 7.47017 -14.9945 10.9927 -108.045 -24.3878 -0.698983 -1.71842 -89.5048 -44.594 78.7441 -49.4839 10.5275 44.1854 7.68576 -8.5918 -91.925 39.1643 4.21539 6.99287 2.46129 -2.56692 7.24104 0.992807 -3.86694 -6.85459 
-232.667 96.6394 -255.138 -86.3291 46.6639 -95.9349 -175.19 28.4115 88.3421 -45.0672 11.9638 -1.32212 57.4263 -3.4169 -1.41432 32.632 10.3135 23.0667 177.868 5.7561 91.692 -44.7612 -12.5585 -6.74143 58.2632 1.71979 0.971727 43.3289 -1.71362 -5.85521 0.955379 7.8121 -89.3989 11.2419 2.18094 0.98267 -0.427466 2.2221 0.885692 -22.9705 1.7848 1.59281 -2.95789 1.7848 1.59281 92.2892 -36.9198 -99.8545 33.1532 -25.0749 15.9257 -14.8449 8.08556 -100.23 -21.2883 -0.777455 -1.00451 -89.4063 -44.3402 78.8373 -45.7341 13.0613 39.2881 12.4671 -8.64975 -91.8252 36.8195 3.68285 6.19487 1.24417 -1.48751 5.10593 2.35997 -2.39919 -4.41778 
